<mxfile host="app.diagrams.net" modified="2023-07-03T06:26:25.186Z" agent="Mozilla/5.0 (Macintosh; Intel Mac OS X 10_15_7) AppleWebKit/537.36 (KHTML, like Gecko) Chrome/114.0.0.0 Safari/537.36" version="21.5.2" etag="LUbm8nkP2MpncG7PbIZh" type="github">
  <diagram name="페이지-1" id="unHgNBhAqszyKdP3d4Pd">
    <mxGraphModel>
      <root>
        <mxCell id="0" />
        <mxCell id="1" parent="0" />
      </root>
    </mxGraphModel>
  </diagram>
</mxfile>
